<svg width="307" height="267" viewBox="0 0 307 267" fill="none" xmlns="http://www.w3.org/2000/svg">
<path d="M136.83 2.7635C137.594 2.7635 138.213 2.14465 138.213 1.38126C138.213 0.617873 137.594 -0.000976562 136.83 -0.000976562C136.067 -0.000976562 135.448 0.617873 135.448 1.38126C135.448 2.14465 136.067 2.7635 136.83 2.7635Z" fill="#83CD20"/>
<path d="M153.484 2.7635C154.247 2.7635 154.866 2.14465 154.866 1.38126C154.866 0.617873 154.247 -0.000976562 153.484 -0.000976562C152.72 -0.000976562 152.102 0.617873 152.102 1.38126C152.102 2.14465 152.72 2.7635 153.484 2.7635Z" fill="#83CD20"/>
<path d="M170.138 2.7635C170.901 2.7635 171.52 2.14465 171.52 1.38126C171.52 0.617873 170.901 -0.000976562 170.138 -0.000976562C169.375 -0.000976562 168.756 0.617873 168.756 1.38126C168.756 2.14465 169.375 2.7635 170.138 2.7635Z" fill="#83CD20"/>
<path d="M186.791 2.7635C187.555 2.7635 188.174 2.14465 188.174 1.38126C188.174 0.617873 187.555 -0.000976562 186.791 -0.000976562C186.028 -0.000976562 185.409 0.617873 185.409 1.38126C185.409 2.14465 186.028 2.7635 186.791 2.7635Z" fill="#83CD20"/>
<path d="M1.38224 2.7635C2.14563 2.7635 2.76448 2.14465 2.76448 1.38126C2.76448 0.617873 2.14563 -0.000976562 1.38224 -0.000976562C0.61885 -0.000976562 0 0.617873 0 1.38126C0 2.14465 0.61885 2.7635 1.38224 2.7635Z" fill="#83CD20"/>
<path d="M205.937 1.38126C205.937 1.65464 205.856 1.92188 205.704 2.14919C205.552 2.37649 205.337 2.55367 205.084 2.65829C204.831 2.76291 204.554 2.7903 204.285 2.73696C204.017 2.68363 203.771 2.55199 203.578 2.35868C203.384 2.16537 203.253 1.91905 203.199 1.65092C203.146 1.38279 203.173 1.10487 203.278 0.852298C203.383 0.599727 203.56 0.383876 203.787 0.231994C204.014 0.080111 204.282 -0.000976562 204.555 -0.000976562C204.922 -0.000976562 205.273 0.144655 205.532 0.403875C205.792 0.663095 205.937 1.01467 205.937 1.38126Z" fill="#83CD20"/>
<path d="M19.4178 1.38126C19.4178 1.65464 19.3367 1.92188 19.1849 2.14919C19.033 2.37649 18.8171 2.55367 18.5645 2.65829C18.312 2.76291 18.034 2.7903 17.7659 2.73696C17.4978 2.68363 17.2515 2.55199 17.0582 2.35868C16.8649 2.16537 16.7332 1.91905 16.6799 1.65092C16.6265 1.38279 16.6539 1.10487 16.7585 0.852298C16.8632 0.599727 17.0403 0.383876 17.2676 0.231994C17.495 0.080111 17.7622 -0.000976562 18.0356 -0.000976562C18.4022 -0.000976562 18.7537 0.144655 19.013 0.403875C19.2722 0.663095 19.4178 1.01467 19.4178 1.38126Z" fill="#83CD20"/>
<path d="M221.208 2.7635C221.972 2.7635 222.591 2.14465 222.591 1.38126C222.591 0.617873 221.972 -0.000976562 221.208 -0.000976562C220.445 -0.000976562 219.826 0.617873 219.826 1.38126C219.826 2.14465 220.445 2.7635 221.208 2.7635Z" fill="#83CD20"/>
<path d="M34.6889 2.7635C35.4523 2.7635 36.0711 2.14465 36.0711 1.38126C36.0711 0.617873 35.4523 -0.000976562 34.6889 -0.000976562C33.9255 -0.000976562 33.3066 0.617873 33.3066 1.38126C33.3066 2.14465 33.9255 2.7635 34.6889 2.7635Z" fill="#83CD20"/>
<path d="M237.862 2.7635C238.625 2.7635 239.244 2.14465 239.244 1.38126C239.244 0.617873 238.625 -0.000976562 237.862 -0.000976562C237.098 -0.000976562 236.479 0.617873 236.479 1.38126C236.479 2.14465 237.098 2.7635 237.862 2.7635Z" fill="#83CD20"/>
<path d="M52.4526 2.7635C53.2159 2.7635 53.8348 2.14465 53.8348 1.38126C53.8348 0.617873 53.2159 -0.000976562 52.4526 -0.000976562C51.6892 -0.000976562 51.0703 0.617873 51.0703 1.38126C51.0703 2.14465 51.6892 2.7635 52.4526 2.7635Z" fill="#83CD20"/>
<path d="M254.515 2.7635C255.278 2.7635 255.897 2.14465 255.897 1.38126C255.897 0.617873 255.278 -0.000976562 254.515 -0.000976562C253.752 -0.000976562 253.133 0.617873 253.133 1.38126C253.133 2.14465 253.752 2.7635 254.515 2.7635Z" fill="#83CD20"/>
<path d="M69.1068 2.7635C69.8702 2.7635 70.4891 2.14465 70.4891 1.38126C70.4891 0.617873 69.8702 -0.000976562 69.1068 -0.000976562C68.3435 -0.000976562 67.7246 0.617873 67.7246 1.38126C67.7246 2.14465 68.3435 2.7635 69.1068 2.7635Z" fill="#83CD20"/>
<path d="M272.279 2.7635C273.042 2.7635 273.661 2.14465 273.661 1.38126C273.661 0.617873 273.042 -0.000976562 272.279 -0.000976562C271.515 -0.000976562 270.896 0.617873 270.896 1.38126C270.896 2.14465 271.515 2.7635 272.279 2.7635Z" fill="#83CD20"/>
<path d="M85.7602 2.7635C86.5236 2.7635 87.1424 2.14465 87.1424 1.38126C87.1424 0.617873 86.5236 -0.000976562 85.7602 -0.000976562C84.9968 -0.000976562 84.3779 0.617873 84.3779 1.38126C84.3779 2.14465 84.9968 2.7635 85.7602 2.7635Z" fill="#83CD20"/>
<path d="M288.933 2.7635C289.696 2.7635 290.315 2.14465 290.315 1.38126C290.315 0.617873 289.696 -0.000976562 288.933 -0.000976562C288.17 -0.000976562 287.551 0.617873 287.551 1.38126C287.551 2.14465 288.17 2.7635 288.933 2.7635Z" fill="#83CD20"/>
<path d="M102.413 2.7635C103.177 2.7635 103.796 2.14465 103.796 1.38126C103.796 0.617873 103.177 -0.000976562 102.413 -0.000976562C101.65 -0.000976562 101.031 0.617873 101.031 1.38126C101.031 2.14465 101.65 2.7635 102.413 2.7635Z" fill="#83CD20"/>
<path d="M305.586 2.7635C306.35 2.7635 306.969 2.14465 306.969 1.38126C306.969 0.617873 306.35 -0.000976562 305.586 -0.000976562C304.823 -0.000976562 304.204 0.617873 304.204 1.38126C304.204 2.14465 304.823 2.7635 305.586 2.7635Z" fill="#83CD20"/>
<path d="M120.177 2.7635C120.941 2.7635 121.559 2.14465 121.559 1.38126C121.559 0.617873 120.941 -0.000976562 120.177 -0.000976562C119.414 -0.000976562 118.795 0.617873 118.795 1.38126C118.795 2.14465 119.414 2.7635 120.177 2.7635Z" fill="#83CD20"/>
<path d="M136.83 21.6385C137.594 21.6385 138.213 21.0197 138.213 20.2563C138.213 19.4929 137.594 18.874 136.83 18.874C136.067 18.874 135.448 19.4929 135.448 20.2563C135.448 21.0197 136.067 21.6385 136.83 21.6385Z" fill="#83CD20"/>
<path d="M153.484 21.6385C154.247 21.6385 154.866 21.0197 154.866 20.2563C154.866 19.4929 154.247 18.874 153.484 18.874C152.72 18.874 152.102 19.4929 152.102 20.2563C152.102 21.0197 152.72 21.6385 153.484 21.6385Z" fill="#83CD20"/>
<path d="M170.138 21.6385C170.901 21.6385 171.52 21.0197 171.52 20.2563C171.52 19.4929 170.901 18.874 170.138 18.874C169.375 18.874 168.756 19.4929 168.756 20.2563C168.756 21.0197 169.375 21.6385 170.138 21.6385Z" fill="#83CD20"/>
<path d="M186.791 21.6385C187.555 21.6385 188.174 21.0197 188.174 20.2563C188.174 19.4929 187.555 18.874 186.791 18.874C186.028 18.874 185.409 19.4929 185.409 20.2563C185.409 21.0197 186.028 21.6385 186.791 21.6385Z" fill="#83CD20"/>
<path d="M1.38224 21.6385C2.14563 21.6385 2.76448 21.0197 2.76448 20.2563C2.76448 19.4929 2.14563 18.874 1.38224 18.874C0.61885 18.874 0 19.4929 0 20.2563C0 21.0197 0.61885 21.6385 1.38224 21.6385Z" fill="#83CD20"/>
<path d="M205.937 20.2563C205.937 20.5296 205.856 20.7969 205.704 21.0242C205.552 21.2515 205.337 21.4287 205.084 21.5333C204.831 21.6379 204.554 21.6653 204.285 21.612C204.017 21.5586 203.771 21.427 203.578 21.2337C203.384 21.0404 203.253 20.7941 203.199 20.5259C203.146 20.2578 203.173 19.9799 203.278 19.7273C203.383 19.4747 203.56 19.2589 203.787 19.107C204.014 18.9551 204.282 18.874 204.555 18.874C204.922 18.874 205.273 19.0197 205.532 19.2789C205.792 19.5381 205.937 19.8897 205.937 20.2563Z" fill="#83CD20"/>
<path d="M19.4178 20.2563C19.4178 20.5296 19.3367 20.7969 19.1849 21.0242C19.033 21.2515 18.8171 21.4287 18.5645 21.5333C18.312 21.6379 18.034 21.6653 17.7659 21.612C17.4978 21.5586 17.2515 21.427 17.0582 21.2337C16.8649 21.0404 16.7332 20.7941 16.6799 20.5259C16.6265 20.2578 16.6539 19.9799 16.7585 19.7273C16.8632 19.4747 17.0403 19.2589 17.2676 19.107C17.495 18.9551 17.7622 18.874 18.0356 18.874C18.4022 18.874 18.7537 19.0197 19.013 19.2789C19.2722 19.5381 19.4178 19.8897 19.4178 20.2563Z" fill="#83CD20"/>
<path d="M221.208 21.6385C221.972 21.6385 222.591 21.0197 222.591 20.2563C222.591 19.4929 221.972 18.874 221.208 18.874C220.445 18.874 219.826 19.4929 219.826 20.2563C219.826 21.0197 220.445 21.6385 221.208 21.6385Z" fill="#83CD20"/>
<path d="M34.6889 21.6385C35.4523 21.6385 36.0711 21.0197 36.0711 20.2563C36.0711 19.4929 35.4523 18.874 34.6889 18.874C33.9255 18.874 33.3066 19.4929 33.3066 20.2563C33.3066 21.0197 33.9255 21.6385 34.6889 21.6385Z" fill="#83CD20"/>
<path d="M237.862 21.6385C238.625 21.6385 239.244 21.0197 239.244 20.2563C239.244 19.4929 238.625 18.874 237.862 18.874C237.098 18.874 236.479 19.4929 236.479 20.2563C236.479 21.0197 237.098 21.6385 237.862 21.6385Z" fill="#83CD20"/>
<path d="M52.4526 21.6385C53.2159 21.6385 53.8348 21.0197 53.8348 20.2563C53.8348 19.4929 53.2159 18.874 52.4526 18.874C51.6892 18.874 51.0703 19.4929 51.0703 20.2563C51.0703 21.0197 51.6892 21.6385 52.4526 21.6385Z" fill="#83CD20"/>
<path d="M254.515 21.6385C255.278 21.6385 255.897 21.0197 255.897 20.2563C255.897 19.4929 255.278 18.874 254.515 18.874C253.752 18.874 253.133 19.4929 253.133 20.2563C253.133 21.0197 253.752 21.6385 254.515 21.6385Z" fill="#83CD20"/>
<path d="M69.1068 21.6385C69.8702 21.6385 70.4891 21.0197 70.4891 20.2563C70.4891 19.4929 69.8702 18.874 69.1068 18.874C68.3435 18.874 67.7246 19.4929 67.7246 20.2563C67.7246 21.0197 68.3435 21.6385 69.1068 21.6385Z" fill="#83CD20"/>
<path d="M272.279 21.6385C273.042 21.6385 273.661 21.0197 273.661 20.2563C273.661 19.4929 273.042 18.874 272.279 18.874C271.515 18.874 270.896 19.4929 270.896 20.2563C270.896 21.0197 271.515 21.6385 272.279 21.6385Z" fill="#83CD20"/>
<path d="M85.7602 21.6385C86.5236 21.6385 87.1424 21.0197 87.1424 20.2563C87.1424 19.4929 86.5236 18.874 85.7602 18.874C84.9968 18.874 84.3779 19.4929 84.3779 20.2563C84.3779 21.0197 84.9968 21.6385 85.7602 21.6385Z" fill="#83CD20"/>
<path d="M288.933 21.6385C289.696 21.6385 290.315 21.0197 290.315 20.2563C290.315 19.4929 289.696 18.874 288.933 18.874C288.17 18.874 287.551 19.4929 287.551 20.2563C287.551 21.0197 288.17 21.6385 288.933 21.6385Z" fill="#83CD20"/>
<path d="M102.413 21.6385C103.177 21.6385 103.796 21.0197 103.796 20.2563C103.796 19.4929 103.177 18.874 102.413 18.874C101.65 18.874 101.031 19.4929 101.031 20.2563C101.031 21.0197 101.65 21.6385 102.413 21.6385Z" fill="#83CD20"/>
<path d="M305.586 21.6385C306.35 21.6385 306.969 21.0197 306.969 20.2563C306.969 19.4929 306.35 18.874 305.586 18.874C304.823 18.874 304.204 19.4929 304.204 20.2563C304.204 21.0197 304.823 21.6385 305.586 21.6385Z" fill="#83CD20"/>
<path d="M120.177 21.6385C120.941 21.6385 121.559 21.0197 121.559 20.2563C121.559 19.4929 120.941 18.874 120.177 18.874C119.414 18.874 118.795 19.4929 118.795 20.2563C118.795 21.0197 119.414 21.6385 120.177 21.6385Z" fill="#83CD20"/>
<path d="M136.83 40.5096C137.594 40.5096 138.213 39.8907 138.213 39.1274C138.213 38.364 137.594 37.7451 136.83 37.7451C136.067 37.7451 135.448 38.364 135.448 39.1274C135.448 39.8907 136.067 40.5096 136.83 40.5096Z" fill="#83CD20"/>
<path d="M153.484 40.5096C154.247 40.5096 154.866 39.8907 154.866 39.1274C154.866 38.364 154.247 37.7451 153.484 37.7451C152.72 37.7451 152.102 38.364 152.102 39.1274C152.102 39.8907 152.72 40.5096 153.484 40.5096Z" fill="#83CD20"/>
<path d="M170.138 40.5096C170.901 40.5096 171.52 39.8907 171.52 39.1274C171.52 38.364 170.901 37.7451 170.138 37.7451C169.375 37.7451 168.756 38.364 168.756 39.1274C168.756 39.8907 169.375 40.5096 170.138 40.5096Z" fill="#83CD20"/>
<path d="M186.791 40.5096C187.555 40.5096 188.174 39.8907 188.174 39.1274C188.174 38.364 187.555 37.7451 186.791 37.7451C186.028 37.7451 185.409 38.364 185.409 39.1274C185.409 39.8907 186.028 40.5096 186.791 40.5096Z" fill="#83CD20"/>
<path d="M1.38224 40.5096C2.14563 40.5096 2.76448 39.8907 2.76448 39.1274C2.76448 38.364 2.14563 37.7451 1.38224 37.7451C0.61885 37.7451 0 38.364 0 39.1274C0 39.8907 0.61885 40.5096 1.38224 40.5096Z" fill="#83CD20"/>
<path d="M205.937 39.1274C205.937 39.4007 205.856 39.668 205.704 39.8953C205.552 40.1226 205.337 40.2998 205.084 40.4044C204.831 40.509 204.554 40.5364 204.285 40.4831C204.017 40.4297 203.771 40.2981 203.578 40.1048C203.384 39.9115 203.253 39.6651 203.199 39.397C203.146 39.1289 203.173 38.851 203.278 38.5984C203.383 38.3458 203.56 38.13 203.787 37.9781C204.014 37.8262 204.282 37.7451 204.555 37.7451C204.922 37.7451 205.273 37.8907 205.532 38.15C205.792 38.4092 205.937 38.7608 205.937 39.1274Z" fill="#83CD20"/>
<path d="M19.4178 39.1274C19.4178 39.4007 19.3367 39.668 19.1849 39.8953C19.033 40.1226 18.8171 40.2998 18.5645 40.4044C18.312 40.509 18.034 40.5364 17.7659 40.4831C17.4978 40.4297 17.2515 40.2981 17.0582 40.1048C16.8649 39.9115 16.7332 39.6651 16.6799 39.397C16.6265 39.1289 16.6539 38.851 16.7585 38.5984C16.8632 38.3458 17.0403 38.13 17.2676 37.9781C17.495 37.8262 17.7622 37.7451 18.0356 37.7451C18.4022 37.7451 18.7537 37.8907 19.013 38.15C19.2722 38.4092 19.4178 38.7608 19.4178 39.1274Z" fill="#83CD20"/>
<path d="M221.208 40.5096C221.972 40.5096 222.591 39.8907 222.591 39.1274C222.591 38.364 221.972 37.7451 221.208 37.7451C220.445 37.7451 219.826 38.364 219.826 39.1274C219.826 39.8907 220.445 40.5096 221.208 40.5096Z" fill="#83CD20"/>
<path d="M34.6889 40.5096C35.4523 40.5096 36.0711 39.8907 36.0711 39.1274C36.0711 38.364 35.4523 37.7451 34.6889 37.7451C33.9255 37.7451 33.3066 38.364 33.3066 39.1274C33.3066 39.8907 33.9255 40.5096 34.6889 40.5096Z" fill="#83CD20"/>
<path d="M237.862 40.5096C238.625 40.5096 239.244 39.8907 239.244 39.1274C239.244 38.364 238.625 37.7451 237.862 37.7451C237.098 37.7451 236.479 38.364 236.479 39.1274C236.479 39.8907 237.098 40.5096 237.862 40.5096Z" fill="#83CD20"/>
<path d="M52.4526 40.5096C53.2159 40.5096 53.8348 39.8907 53.8348 39.1274C53.8348 38.364 53.2159 37.7451 52.4526 37.7451C51.6892 37.7451 51.0703 38.364 51.0703 39.1274C51.0703 39.8907 51.6892 40.5096 52.4526 40.5096Z" fill="#83CD20"/>
<path d="M254.515 40.5096C255.278 40.5096 255.897 39.8907 255.897 39.1274C255.897 38.364 255.278 37.7451 254.515 37.7451C253.752 37.7451 253.133 38.364 253.133 39.1274C253.133 39.8907 253.752 40.5096 254.515 40.5096Z" fill="#83CD20"/>
<path d="M69.1068 40.5096C69.8702 40.5096 70.4891 39.8907 70.4891 39.1274C70.4891 38.364 69.8702 37.7451 69.1068 37.7451C68.3435 37.7451 67.7246 38.364 67.7246 39.1274C67.7246 39.8907 68.3435 40.5096 69.1068 40.5096Z" fill="#83CD20"/>
<path d="M272.279 40.5096C273.042 40.5096 273.661 39.8907 273.661 39.1274C273.661 38.364 273.042 37.7451 272.279 37.7451C271.515 37.7451 270.896 38.364 270.896 39.1274C270.896 39.8907 271.515 40.5096 272.279 40.5096Z" fill="#83CD20"/>
<path d="M85.7602 40.5096C86.5236 40.5096 87.1424 39.8907 87.1424 39.1274C87.1424 38.364 86.5236 37.7451 85.7602 37.7451C84.9968 37.7451 84.3779 38.364 84.3779 39.1274C84.3779 39.8907 84.9968 40.5096 85.7602 40.5096Z" fill="#83CD20"/>
<path d="M288.933 40.5096C289.696 40.5096 290.315 39.8907 290.315 39.1274C290.315 38.364 289.696 37.7451 288.933 37.7451C288.17 37.7451 287.551 38.364 287.551 39.1274C287.551 39.8907 288.17 40.5096 288.933 40.5096Z" fill="#83CD20"/>
<path d="M102.413 40.5096C103.177 40.5096 103.796 39.8907 103.796 39.1274C103.796 38.364 103.177 37.7451 102.413 37.7451C101.65 37.7451 101.031 38.364 101.031 39.1274C101.031 39.8907 101.65 40.5096 102.413 40.5096Z" fill="#83CD20"/>
<path d="M305.586 40.5096C306.35 40.5096 306.969 39.8907 306.969 39.1274C306.969 38.364 306.35 37.7451 305.586 37.7451C304.823 37.7451 304.204 38.364 304.204 39.1274C304.204 39.8907 304.823 40.5096 305.586 40.5096Z" fill="#83CD20"/>
<path d="M120.177 40.5096C120.941 40.5096 121.559 39.8907 121.559 39.1274C121.559 38.364 120.941 37.7451 120.177 37.7451C119.414 37.7451 118.795 38.364 118.795 39.1274C118.795 39.8907 119.414 40.5096 120.177 40.5096Z" fill="#83CD20"/>
<path d="M136.83 59.3846C137.594 59.3846 138.213 58.7657 138.213 58.0024C138.213 57.239 137.594 56.6201 136.83 56.6201C136.067 56.6201 135.448 57.239 135.448 58.0024C135.448 58.7657 136.067 59.3846 136.83 59.3846Z" fill="#83CD20"/>
<path d="M153.484 59.3846C154.247 59.3846 154.866 58.7657 154.866 58.0024C154.866 57.239 154.247 56.6201 153.484 56.6201C152.72 56.6201 152.102 57.239 152.102 58.0024C152.102 58.7657 152.72 59.3846 153.484 59.3846Z" fill="#83CD20"/>
<path d="M170.138 59.3846C170.901 59.3846 171.52 58.7657 171.52 58.0024C171.52 57.239 170.901 56.6201 170.138 56.6201C169.375 56.6201 168.756 57.239 168.756 58.0024C168.756 58.7657 169.375 59.3846 170.138 59.3846Z" fill="#83CD20"/>
<path d="M186.791 59.3846C187.555 59.3846 188.174 58.7657 188.174 58.0024C188.174 57.239 187.555 56.6201 186.791 56.6201C186.028 56.6201 185.409 57.239 185.409 58.0024C185.409 58.7657 186.028 59.3846 186.791 59.3846Z" fill="#83CD20"/>
<path d="M1.38224 59.3846C2.14563 59.3846 2.76448 58.7657 2.76448 58.0024C2.76448 57.239 2.14563 56.6201 1.38224 56.6201C0.61885 56.6201 0 57.239 0 58.0024C0 58.7657 0.61885 59.3846 1.38224 59.3846Z" fill="#83CD20"/>
<path d="M205.937 58.0024C205.937 58.2757 205.856 58.543 205.704 58.7703C205.552 58.9976 205.337 59.1748 205.084 59.2794C204.831 59.384 204.554 59.4114 204.285 59.3581C204.017 59.3047 203.771 59.1731 203.578 58.9798C203.384 58.7865 203.253 58.5401 203.199 58.272C203.146 58.0039 203.173 57.726 203.278 57.4734C203.383 57.2208 203.56 57.005 203.787 56.8531C204.014 56.7012 204.282 56.6201 204.555 56.6201C204.922 56.6201 205.273 56.7657 205.532 57.025C205.792 57.2842 205.937 57.6358 205.937 58.0024Z" fill="#83CD20"/>
<path d="M19.4178 58.0024C19.4178 58.2757 19.3367 58.543 19.1849 58.7703C19.033 58.9976 18.8171 59.1748 18.5645 59.2794C18.312 59.384 18.034 59.4114 17.7659 59.3581C17.4978 59.3047 17.2515 59.1731 17.0582 58.9798C16.8649 58.7865 16.7332 58.5401 16.6799 58.272C16.6265 58.0039 16.6539 57.726 16.7585 57.4734C16.8632 57.2208 17.0403 57.005 17.2676 56.8531C17.495 56.7012 17.7622 56.6201 18.0356 56.6201C18.4022 56.6201 18.7537 56.7657 19.013 57.025C19.2722 57.2842 19.4178 57.6358 19.4178 58.0024Z" fill="#83CD20"/>
<path d="M221.208 59.3846C221.972 59.3846 222.591 58.7657 222.591 58.0024C222.591 57.239 221.972 56.6201 221.208 56.6201C220.445 56.6201 219.826 57.239 219.826 58.0024C219.826 58.7657 220.445 59.3846 221.208 59.3846Z" fill="#83CD20"/>
<path d="M34.6889 59.3846C35.4523 59.3846 36.0711 58.7657 36.0711 58.0024C36.0711 57.239 35.4523 56.6201 34.6889 56.6201C33.9255 56.6201 33.3066 57.239 33.3066 58.0024C33.3066 58.7657 33.9255 59.3846 34.6889 59.3846Z" fill="#83CD20"/>
<path d="M237.862 59.3846C238.625 59.3846 239.244 58.7657 239.244 58.0024C239.244 57.239 238.625 56.6201 237.862 56.6201C237.098 56.6201 236.479 57.239 236.479 58.0024C236.479 58.7657 237.098 59.3846 237.862 59.3846Z" fill="#83CD20"/>
<path d="M52.4526 59.3846C53.2159 59.3846 53.8348 58.7657 53.8348 58.0024C53.8348 57.239 53.2159 56.6201 52.4526 56.6201C51.6892 56.6201 51.0703 57.239 51.0703 58.0024C51.0703 58.7657 51.6892 59.3846 52.4526 59.3846Z" fill="#83CD20"/>
<path d="M254.515 59.3846C255.278 59.3846 255.897 58.7657 255.897 58.0024C255.897 57.239 255.278 56.6201 254.515 56.6201C253.752 56.6201 253.133 57.239 253.133 58.0024C253.133 58.7657 253.752 59.3846 254.515 59.3846Z" fill="#83CD20"/>
<path d="M69.1068 59.3846C69.8702 59.3846 70.4891 58.7657 70.4891 58.0024C70.4891 57.239 69.8702 56.6201 69.1068 56.6201C68.3435 56.6201 67.7246 57.239 67.7246 58.0024C67.7246 58.7657 68.3435 59.3846 69.1068 59.3846Z" fill="#83CD20"/>
<path d="M272.279 59.3846C273.042 59.3846 273.661 58.7657 273.661 58.0024C273.661 57.239 273.042 56.6201 272.279 56.6201C271.515 56.6201 270.896 57.239 270.896 58.0024C270.896 58.7657 271.515 59.3846 272.279 59.3846Z" fill="#83CD20"/>
<path d="M85.7602 59.3846C86.5236 59.3846 87.1424 58.7657 87.1424 58.0024C87.1424 57.239 86.5236 56.6201 85.7602 56.6201C84.9968 56.6201 84.3779 57.239 84.3779 58.0024C84.3779 58.7657 84.9968 59.3846 85.7602 59.3846Z" fill="#83CD20"/>
<path d="M288.933 59.3846C289.696 59.3846 290.315 58.7657 290.315 58.0024C290.315 57.239 289.696 56.6201 288.933 56.6201C288.17 56.6201 287.551 57.239 287.551 58.0024C287.551 58.7657 288.17 59.3846 288.933 59.3846Z" fill="#83CD20"/>
<path d="M102.413 59.3846C103.177 59.3846 103.796 58.7657 103.796 58.0024C103.796 57.239 103.177 56.6201 102.413 56.6201C101.65 56.6201 101.031 57.239 101.031 58.0024C101.031 58.7657 101.65 59.3846 102.413 59.3846Z" fill="#83CD20"/>
<path d="M305.586 59.3846C306.35 59.3846 306.969 58.7657 306.969 58.0024C306.969 57.239 306.35 56.6201 305.586 56.6201C304.823 56.6201 304.204 57.239 304.204 58.0024C304.204 58.7657 304.823 59.3846 305.586 59.3846Z" fill="#83CD20"/>
<path d="M120.177 59.3846C120.941 59.3846 121.559 58.7657 121.559 58.0024C121.559 57.239 120.941 56.6201 120.177 56.6201C119.414 56.6201 118.795 57.239 118.795 58.0024C118.795 58.7657 119.414 59.3846 120.177 59.3846Z" fill="#83CD20"/>
<path d="M136.83 78.2596C137.594 78.2596 138.213 77.6407 138.213 76.8774C138.213 76.114 137.594 75.4951 136.83 75.4951C136.067 75.4951 135.448 76.114 135.448 76.8774C135.448 77.6407 136.067 78.2596 136.83 78.2596Z" fill="#83CD20"/>
<path d="M153.484 78.2596C154.247 78.2596 154.866 77.6407 154.866 76.8774C154.866 76.114 154.247 75.4951 153.484 75.4951C152.72 75.4951 152.102 76.114 152.102 76.8774C152.102 77.6407 152.72 78.2596 153.484 78.2596Z" fill="#83CD20"/>
<path d="M170.138 78.2596C170.901 78.2596 171.52 77.6407 171.52 76.8774C171.52 76.114 170.901 75.4951 170.138 75.4951C169.375 75.4951 168.756 76.114 168.756 76.8774C168.756 77.6407 169.375 78.2596 170.138 78.2596Z" fill="#83CD20"/>
<path d="M186.791 78.2596C187.555 78.2596 188.174 77.6407 188.174 76.8774C188.174 76.114 187.555 75.4951 186.791 75.4951C186.028 75.4951 185.409 76.114 185.409 76.8774C185.409 77.6407 186.028 78.2596 186.791 78.2596Z" fill="#83CD20"/>
<path d="M1.38224 78.2596C2.14563 78.2596 2.76448 77.6407 2.76448 76.8774C2.76448 76.114 2.14563 75.4951 1.38224 75.4951C0.61885 75.4951 0 76.114 0 76.8774C0 77.6407 0.61885 78.2596 1.38224 78.2596Z" fill="#83CD20"/>
<path d="M205.937 76.8774C205.937 77.1507 205.856 77.418 205.704 77.6453C205.552 77.8726 205.337 78.0498 205.084 78.1544C204.831 78.259 204.554 78.2864 204.285 78.2331C204.017 78.1797 203.771 78.0481 203.578 77.8548C203.384 77.6615 203.253 77.4151 203.199 77.147C203.146 76.8789 203.173 76.601 203.278 76.3484C203.383 76.0958 203.56 75.88 203.787 75.7281C204.014 75.5762 204.282 75.4951 204.555 75.4951C204.922 75.4951 205.273 75.6407 205.532 75.9C205.792 76.1592 205.937 76.5108 205.937 76.8774Z" fill="#83CD20"/>
<path d="M19.4178 76.8774C19.4178 77.1507 19.3367 77.418 19.1849 77.6453C19.033 77.8726 18.8171 78.0498 18.5645 78.1544C18.312 78.259 18.034 78.2864 17.7659 78.2331C17.4978 78.1797 17.2515 78.0481 17.0582 77.8548C16.8649 77.6615 16.7332 77.4151 16.6799 77.147C16.6265 76.8789 16.6539 76.601 16.7585 76.3484C16.8632 76.0958 17.0403 75.88 17.2676 75.7281C17.495 75.5762 17.7622 75.4951 18.0356 75.4951C18.4022 75.4951 18.7537 75.6407 19.013 75.9C19.2722 76.1592 19.4178 76.5108 19.4178 76.8774Z" fill="#83CD20"/>
<path d="M221.208 78.2596C221.972 78.2596 222.591 77.6407 222.591 76.8774C222.591 76.114 221.972 75.4951 221.208 75.4951C220.445 75.4951 219.826 76.114 219.826 76.8774C219.826 77.6407 220.445 78.2596 221.208 78.2596Z" fill="#83CD20"/>
<path d="M34.6889 78.2596C35.4523 78.2596 36.0711 77.6407 36.0711 76.8774C36.0711 76.114 35.4523 75.4951 34.6889 75.4951C33.9255 75.4951 33.3066 76.114 33.3066 76.8774C33.3066 77.6407 33.9255 78.2596 34.6889 78.2596Z" fill="#83CD20"/>
<path d="M237.862 78.2596C238.625 78.2596 239.244 77.6407 239.244 76.8774C239.244 76.114 238.625 75.4951 237.862 75.4951C237.098 75.4951 236.479 76.114 236.479 76.8774C236.479 77.6407 237.098 78.2596 237.862 78.2596Z" fill="#83CD20"/>
<path d="M52.4526 78.2596C53.2159 78.2596 53.8348 77.6407 53.8348 76.8774C53.8348 76.114 53.2159 75.4951 52.4526 75.4951C51.6892 75.4951 51.0703 76.114 51.0703 76.8774C51.0703 77.6407 51.6892 78.2596 52.4526 78.2596Z" fill="#83CD20"/>
<path d="M254.515 78.2596C255.278 78.2596 255.897 77.6407 255.897 76.8774C255.897 76.114 255.278 75.4951 254.515 75.4951C253.752 75.4951 253.133 76.114 253.133 76.8774C253.133 77.6407 253.752 78.2596 254.515 78.2596Z" fill="#83CD20"/>
<path d="M69.1068 78.2596C69.8702 78.2596 70.4891 77.6407 70.4891 76.8774C70.4891 76.114 69.8702 75.4951 69.1068 75.4951C68.3435 75.4951 67.7246 76.114 67.7246 76.8774C67.7246 77.6407 68.3435 78.2596 69.1068 78.2596Z" fill="#83CD20"/>
<path d="M272.279 78.2596C273.042 78.2596 273.661 77.6407 273.661 76.8774C273.661 76.114 273.042 75.4951 272.279 75.4951C271.515 75.4951 270.896 76.114 270.896 76.8774C270.896 77.6407 271.515 78.2596 272.279 78.2596Z" fill="#83CD20"/>
<path d="M85.7602 78.2596C86.5236 78.2596 87.1424 77.6407 87.1424 76.8774C87.1424 76.114 86.5236 75.4951 85.7602 75.4951C84.9968 75.4951 84.3779 76.114 84.3779 76.8774C84.3779 77.6407 84.9968 78.2596 85.7602 78.2596Z" fill="#83CD20"/>
<path d="M288.933 78.2596C289.696 78.2596 290.315 77.6407 290.315 76.8774C290.315 76.114 289.696 75.4951 288.933 75.4951C288.17 75.4951 287.551 76.114 287.551 76.8774C287.551 77.6407 288.17 78.2596 288.933 78.2596Z" fill="#83CD20"/>
<path d="M102.413 78.2596C103.177 78.2596 103.796 77.6407 103.796 76.8774C103.796 76.114 103.177 75.4951 102.413 75.4951C101.65 75.4951 101.031 76.114 101.031 76.8774C101.031 77.6407 101.65 78.2596 102.413 78.2596Z" fill="#83CD20"/>
<path d="M305.586 78.2596C306.35 78.2596 306.969 77.6407 306.969 76.8774C306.969 76.114 306.35 75.4951 305.586 75.4951C304.823 75.4951 304.204 76.114 304.204 76.8774C304.204 77.6407 304.823 78.2596 305.586 78.2596Z" fill="#83CD20"/>
<path d="M120.177 78.2596C120.941 78.2596 121.559 77.6407 121.559 76.8774C121.559 76.114 120.941 75.4951 120.177 75.4951C119.414 75.4951 118.795 76.114 118.795 76.8774C118.795 77.6407 119.414 78.2596 120.177 78.2596Z" fill="#83CD20"/>
<path d="M136.83 97.1346C137.594 97.1346 138.213 96.5157 138.213 95.7524C138.213 94.989 137.594 94.3701 136.83 94.3701C136.067 94.3701 135.448 94.989 135.448 95.7524C135.448 96.5157 136.067 97.1346 136.83 97.1346Z" fill="#83CD20"/>
<path d="M153.484 97.1346C154.247 97.1346 154.866 96.5157 154.866 95.7524C154.866 94.989 154.247 94.3701 153.484 94.3701C152.72 94.3701 152.102 94.989 152.102 95.7524C152.102 96.5157 152.72 97.1346 153.484 97.1346Z" fill="#83CD20"/>
<path d="M170.138 97.1346C170.901 97.1346 171.52 96.5157 171.52 95.7524C171.52 94.989 170.901 94.3701 170.138 94.3701C169.375 94.3701 168.756 94.989 168.756 95.7524C168.756 96.5157 169.375 97.1346 170.138 97.1346Z" fill="#83CD20"/>
<path d="M186.791 97.1346C187.555 97.1346 188.174 96.5157 188.174 95.7524C188.174 94.989 187.555 94.3701 186.791 94.3701C186.028 94.3701 185.409 94.989 185.409 95.7524C185.409 96.5157 186.028 97.1346 186.791 97.1346Z" fill="#83CD20"/>
<path d="M1.38224 97.1346C2.14563 97.1346 2.76448 96.5157 2.76448 95.7524C2.76448 94.989 2.14563 94.3701 1.38224 94.3701C0.61885 94.3701 0 94.989 0 95.7524C0 96.5157 0.61885 97.1346 1.38224 97.1346Z" fill="#83CD20"/>
<path d="M205.937 95.7524C205.937 96.0257 205.856 96.293 205.704 96.5203C205.552 96.7476 205.337 96.9248 205.084 97.0294C204.831 97.134 204.554 97.1614 204.285 97.1081C204.017 97.0547 203.771 96.9231 203.578 96.7298C203.384 96.5365 203.253 96.2901 203.199 96.022C203.146 95.7539 203.173 95.476 203.278 95.2234C203.383 94.9708 203.56 94.755 203.787 94.6031C204.014 94.4512 204.282 94.3701 204.555 94.3701C204.922 94.3701 205.273 94.5157 205.532 94.775C205.792 95.0342 205.937 95.3858 205.937 95.7524Z" fill="#83CD20"/>
<path d="M19.4178 95.7524C19.4178 96.0257 19.3367 96.293 19.1849 96.5203C19.033 96.7476 18.8171 96.9248 18.5645 97.0294C18.312 97.134 18.034 97.1614 17.7659 97.1081C17.4978 97.0547 17.2515 96.9231 17.0582 96.7298C16.8649 96.5365 16.7332 96.2901 16.6799 96.022C16.6265 95.7539 16.6539 95.476 16.7585 95.2234C16.8632 94.9708 17.0403 94.755 17.2676 94.6031C17.495 94.4512 17.7622 94.3701 18.0356 94.3701C18.4022 94.3701 18.7537 94.5157 19.013 94.775C19.2722 95.0342 19.4178 95.3858 19.4178 95.7524Z" fill="#83CD20"/>
<path d="M221.208 97.1346C221.972 97.1346 222.591 96.5157 222.591 95.7524C222.591 94.989 221.972 94.3701 221.208 94.3701C220.445 94.3701 219.826 94.989 219.826 95.7524C219.826 96.5157 220.445 97.1346 221.208 97.1346Z" fill="#83CD20"/>
<path d="M34.6889 97.1346C35.4523 97.1346 36.0711 96.5157 36.0711 95.7524C36.0711 94.989 35.4523 94.3701 34.6889 94.3701C33.9255 94.3701 33.3066 94.989 33.3066 95.7524C33.3066 96.5157 33.9255 97.1346 34.6889 97.1346Z" fill="#83CD20"/>
<path d="M237.862 97.1346C238.625 97.1346 239.244 96.5157 239.244 95.7524C239.244 94.989 238.625 94.3701 237.862 94.3701C237.098 94.3701 236.479 94.989 236.479 95.7524C236.479 96.5157 237.098 97.1346 237.862 97.1346Z" fill="#83CD20"/>
<path d="M52.4526 97.1346C53.2159 97.1346 53.8348 96.5157 53.8348 95.7524C53.8348 94.989 53.2159 94.3701 52.4526 94.3701C51.6892 94.3701 51.0703 94.989 51.0703 95.7524C51.0703 96.5157 51.6892 97.1346 52.4526 97.1346Z" fill="#83CD20"/>
<path d="M254.515 97.1346C255.278 97.1346 255.897 96.5157 255.897 95.7524C255.897 94.989 255.278 94.3701 254.515 94.3701C253.752 94.3701 253.133 94.989 253.133 95.7524C253.133 96.5157 253.752 97.1346 254.515 97.1346Z" fill="#83CD20"/>
<path d="M69.1068 97.1346C69.8702 97.1346 70.4891 96.5157 70.4891 95.7524C70.4891 94.989 69.8702 94.3701 69.1068 94.3701C68.3435 94.3701 67.7246 94.989 67.7246 95.7524C67.7246 96.5157 68.3435 97.1346 69.1068 97.1346Z" fill="#83CD20"/>
<path d="M272.279 97.1346C273.042 97.1346 273.661 96.5157 273.661 95.7524C273.661 94.989 273.042 94.3701 272.279 94.3701C271.515 94.3701 270.896 94.989 270.896 95.7524C270.896 96.5157 271.515 97.1346 272.279 97.1346Z" fill="#83CD20"/>
<path d="M85.7602 97.1346C86.5236 97.1346 87.1424 96.5157 87.1424 95.7524C87.1424 94.989 86.5236 94.3701 85.7602 94.3701C84.9968 94.3701 84.3779 94.989 84.3779 95.7524C84.3779 96.5157 84.9968 97.1346 85.7602 97.1346Z" fill="#83CD20"/>
<path d="M288.933 97.1346C289.696 97.1346 290.315 96.5157 290.315 95.7524C290.315 94.989 289.696 94.3701 288.933 94.3701C288.17 94.3701 287.551 94.989 287.551 95.7524C287.551 96.5157 288.17 97.1346 288.933 97.1346Z" fill="#83CD20"/>
<path d="M102.413 97.1346C103.177 97.1346 103.796 96.5157 103.796 95.7524C103.796 94.989 103.177 94.3701 102.413 94.3701C101.65 94.3701 101.031 94.989 101.031 95.7524C101.031 96.5157 101.65 97.1346 102.413 97.1346Z" fill="#83CD20"/>
<path d="M305.586 97.1346C306.35 97.1346 306.969 96.5157 306.969 95.7524C306.969 94.989 306.35 94.3701 305.586 94.3701C304.823 94.3701 304.204 94.989 304.204 95.7524C304.204 96.5157 304.823 97.1346 305.586 97.1346Z" fill="#83CD20"/>
<path d="M120.177 97.1346C120.941 97.1346 121.559 96.5157 121.559 95.7524C121.559 94.989 120.941 94.3701 120.177 94.3701C119.414 94.3701 118.795 94.989 118.795 95.7524C118.795 96.5157 119.414 97.1346 120.177 97.1346Z" fill="#83CD20"/>
<path d="M136.83 116.006C137.594 116.006 138.213 115.387 138.213 114.623C138.213 113.86 137.594 113.241 136.83 113.241C136.067 113.241 135.448 113.86 135.448 114.623C135.448 115.387 136.067 116.006 136.83 116.006Z" fill="#83CD20"/>
<path d="M153.484 116.006C154.247 116.006 154.866 115.387 154.866 114.623C154.866 113.86 154.247 113.241 153.484 113.241C152.72 113.241 152.102 113.86 152.102 114.623C152.102 115.387 152.72 116.006 153.484 116.006Z" fill="#83CD20"/>
<path d="M170.138 116.006C170.901 116.006 171.52 115.387 171.52 114.623C171.52 113.86 170.901 113.241 170.138 113.241C169.375 113.241 168.756 113.86 168.756 114.623C168.756 115.387 169.375 116.006 170.138 116.006Z" fill="#83CD20"/>
<path d="M186.791 116.006C187.555 116.006 188.174 115.387 188.174 114.623C188.174 113.86 187.555 113.241 186.791 113.241C186.028 113.241 185.409 113.86 185.409 114.623C185.409 115.387 186.028 116.006 186.791 116.006Z" fill="#83CD20"/>
<path d="M1.38224 116.006C2.14563 116.006 2.76448 115.387 2.76448 114.623C2.76448 113.86 2.14563 113.241 1.38224 113.241C0.61885 113.241 0 113.86 0 114.623C0 115.387 0.61885 116.006 1.38224 116.006Z" fill="#83CD20"/>
<path d="M205.937 114.623C205.937 114.897 205.856 115.164 205.704 115.391C205.552 115.619 205.337 115.796 205.084 115.9C204.831 116.005 204.554 116.032 204.285 115.979C204.017 115.926 203.771 115.794 203.578 115.601C203.384 115.408 203.253 115.161 203.199 114.893C203.146 114.625 203.173 114.347 203.278 114.094C203.383 113.842 203.56 113.626 203.787 113.474C204.014 113.322 204.282 113.241 204.555 113.241C204.922 113.241 205.273 113.387 205.532 113.646C205.792 113.905 205.937 114.257 205.937 114.623Z" fill="#83CD20"/>
<path d="M19.4178 114.623C19.4178 114.897 19.3367 115.164 19.1849 115.391C19.033 115.619 18.8171 115.796 18.5645 115.9C18.312 116.005 18.034 116.032 17.7659 115.979C17.4978 115.926 17.2515 115.794 17.0582 115.601C16.8649 115.408 16.7332 115.161 16.6799 114.893C16.6265 114.625 16.6539 114.347 16.7585 114.094C16.8632 113.842 17.0403 113.626 17.2676 113.474C17.495 113.322 17.7622 113.241 18.0356 113.241C18.4022 113.241 18.7537 113.387 19.013 113.646C19.2722 113.905 19.4178 114.257 19.4178 114.623Z" fill="#83CD20"/>
<path d="M221.208 116.006C221.972 116.006 222.591 115.387 222.591 114.623C222.591 113.86 221.972 113.241 221.208 113.241C220.445 113.241 219.826 113.86 219.826 114.623C219.826 115.387 220.445 116.006 221.208 116.006Z" fill="#83CD20"/>
<path d="M34.6889 116.006C35.4523 116.006 36.0711 115.387 36.0711 114.623C36.0711 113.86 35.4523 113.241 34.6889 113.241C33.9255 113.241 33.3066 113.86 33.3066 114.623C33.3066 115.387 33.9255 116.006 34.6889 116.006Z" fill="#83CD20"/>
<path d="M237.862 116.006C238.625 116.006 239.244 115.387 239.244 114.623C239.244 113.86 238.625 113.241 237.862 113.241C237.098 113.241 236.479 113.86 236.479 114.623C236.479 115.387 237.098 116.006 237.862 116.006Z" fill="#83CD20"/>
<path d="M52.4526 116.006C53.2159 116.006 53.8348 115.387 53.8348 114.623C53.8348 113.86 53.2159 113.241 52.4526 113.241C51.6892 113.241 51.0703 113.86 51.0703 114.623C51.0703 115.387 51.6892 116.006 52.4526 116.006Z" fill="#83CD20"/>
<path d="M254.515 116.006C255.278 116.006 255.897 115.387 255.897 114.623C255.897 113.86 255.278 113.241 254.515 113.241C253.752 113.241 253.133 113.86 253.133 114.623C253.133 115.387 253.752 116.006 254.515 116.006Z" fill="#83CD20"/>
<path d="M69.1068 116.006C69.8702 116.006 70.4891 115.387 70.4891 114.623C70.4891 113.86 69.8702 113.241 69.1068 113.241C68.3435 113.241 67.7246 113.86 67.7246 114.623C67.7246 115.387 68.3435 116.006 69.1068 116.006Z" fill="#83CD20"/>
<path d="M272.279 116.006C273.042 116.006 273.661 115.387 273.661 114.623C273.661 113.86 273.042 113.241 272.279 113.241C271.515 113.241 270.896 113.86 270.896 114.623C270.896 115.387 271.515 116.006 272.279 116.006Z" fill="#83CD20"/>
<path d="M85.7602 116.006C86.5236 116.006 87.1424 115.387 87.1424 114.623C87.1424 113.86 86.5236 113.241 85.7602 113.241C84.9968 113.241 84.3779 113.86 84.3779 114.623C84.3779 115.387 84.9968 116.006 85.7602 116.006Z" fill="#83CD20"/>
<path d="M288.933 116.006C289.696 116.006 290.315 115.387 290.315 114.623C290.315 113.86 289.696 113.241 288.933 113.241C288.17 113.241 287.551 113.86 287.551 114.623C287.551 115.387 288.17 116.006 288.933 116.006Z" fill="#83CD20"/>
<path d="M102.413 116.006C103.177 116.006 103.796 115.387 103.796 114.623C103.796 113.86 103.177 113.241 102.413 113.241C101.65 113.241 101.031 113.86 101.031 114.623C101.031 115.387 101.65 116.006 102.413 116.006Z" fill="#83CD20"/>
<path d="M305.586 116.006C306.35 116.006 306.969 115.387 306.969 114.623C306.969 113.86 306.35 113.241 305.586 113.241C304.823 113.241 304.204 113.86 304.204 114.623C304.204 115.387 304.823 116.006 305.586 116.006Z" fill="#83CD20"/>
<path d="M120.177 116.006C120.941 116.006 121.559 115.387 121.559 114.623C121.559 113.86 120.941 113.241 120.177 113.241C119.414 113.241 118.795 113.86 118.795 114.623C118.795 115.387 119.414 116.006 120.177 116.006Z" fill="#83CD20"/>
<path d="M136.83 134.881C137.594 134.881 138.213 134.262 138.213 133.498C138.213 132.735 137.594 132.116 136.83 132.116C136.067 132.116 135.448 132.735 135.448 133.498C135.448 134.262 136.067 134.881 136.83 134.881Z" fill="#83CD20"/>
<path d="M153.484 134.881C154.247 134.881 154.866 134.262 154.866 133.498C154.866 132.735 154.247 132.116 153.484 132.116C152.72 132.116 152.102 132.735 152.102 133.498C152.102 134.262 152.72 134.881 153.484 134.881Z" fill="#83CD20"/>
<path d="M170.138 134.881C170.901 134.881 171.52 134.262 171.52 133.498C171.52 132.735 170.901 132.116 170.138 132.116C169.375 132.116 168.756 132.735 168.756 133.498C168.756 134.262 169.375 134.881 170.138 134.881Z" fill="#83CD20"/>
<path d="M186.791 134.881C187.555 134.881 188.174 134.262 188.174 133.498C188.174 132.735 187.555 132.116 186.791 132.116C186.028 132.116 185.409 132.735 185.409 133.498C185.409 134.262 186.028 134.881 186.791 134.881Z" fill="#83CD20"/>
<path d="M1.38224 134.881C2.14563 134.881 2.76448 134.262 2.76448 133.498C2.76448 132.735 2.14563 132.116 1.38224 132.116C0.61885 132.116 0 132.735 0 133.498C0 134.262 0.61885 134.881 1.38224 134.881Z" fill="#83CD20"/>
<path d="M205.937 133.498C205.937 133.772 205.856 134.039 205.704 134.266C205.552 134.494 205.337 134.671 205.084 134.775C204.831 134.88 204.554 134.907 204.285 134.854C204.017 134.801 203.771 134.669 203.578 134.476C203.384 134.283 203.253 134.036 203.199 133.768C203.146 133.5 203.173 133.222 203.278 132.969C203.383 132.717 203.56 132.501 203.787 132.349C204.014 132.197 204.282 132.116 204.555 132.116C204.922 132.116 205.273 132.262 205.532 132.521C205.792 132.78 205.937 133.132 205.937 133.498Z" fill="#83CD20"/>
<path d="M19.4178 133.498C19.4178 133.772 19.3367 134.039 19.1849 134.266C19.033 134.494 18.8171 134.671 18.5645 134.775C18.312 134.88 18.034 134.907 17.7659 134.854C17.4978 134.801 17.2515 134.669 17.0582 134.476C16.8649 134.283 16.7332 134.036 16.6799 133.768C16.6265 133.5 16.6539 133.222 16.7585 132.969C16.8632 132.717 17.0403 132.501 17.2676 132.349C17.495 132.197 17.7622 132.116 18.0356 132.116C18.4022 132.116 18.7537 132.262 19.013 132.521C19.2722 132.78 19.4178 133.132 19.4178 133.498Z" fill="#83CD20"/>
<path d="M221.208 134.881C221.972 134.881 222.591 134.262 222.591 133.498C222.591 132.735 221.972 132.116 221.208 132.116C220.445 132.116 219.826 132.735 219.826 133.498C219.826 134.262 220.445 134.881 221.208 134.881Z" fill="#83CD20"/>
<path d="M34.6889 134.881C35.4523 134.881 36.0711 134.262 36.0711 133.498C36.0711 132.735 35.4523 132.116 34.6889 132.116C33.9255 132.116 33.3066 132.735 33.3066 133.498C33.3066 134.262 33.9255 134.881 34.6889 134.881Z" fill="#83CD20"/>
<path d="M237.862 134.881C238.625 134.881 239.244 134.262 239.244 133.498C239.244 132.735 238.625 132.116 237.862 132.116C237.098 132.116 236.479 132.735 236.479 133.498C236.479 134.262 237.098 134.881 237.862 134.881Z" fill="#83CD20"/>
<path d="M52.4526 134.881C53.2159 134.881 53.8348 134.262 53.8348 133.498C53.8348 132.735 53.2159 132.116 52.4526 132.116C51.6892 132.116 51.0703 132.735 51.0703 133.498C51.0703 134.262 51.6892 134.881 52.4526 134.881Z" fill="#83CD20"/>
<path d="M254.515 134.881C255.278 134.881 255.897 134.262 255.897 133.498C255.897 132.735 255.278 132.116 254.515 132.116C253.752 132.116 253.133 132.735 253.133 133.498C253.133 134.262 253.752 134.881 254.515 134.881Z" fill="#83CD20"/>
<path d="M69.1068 134.881C69.8702 134.881 70.4891 134.262 70.4891 133.498C70.4891 132.735 69.8702 132.116 69.1068 132.116C68.3435 132.116 67.7246 132.735 67.7246 133.498C67.7246 134.262 68.3435 134.881 69.1068 134.881Z" fill="#83CD20"/>
<path d="M272.279 134.881C273.042 134.881 273.661 134.262 273.661 133.498C273.661 132.735 273.042 132.116 272.279 132.116C271.515 132.116 270.896 132.735 270.896 133.498C270.896 134.262 271.515 134.881 272.279 134.881Z" fill="#83CD20"/>
<path d="M85.7602 134.881C86.5236 134.881 87.1424 134.262 87.1424 133.498C87.1424 132.735 86.5236 132.116 85.7602 132.116C84.9968 132.116 84.3779 132.735 84.3779 133.498C84.3779 134.262 84.9968 134.881 85.7602 134.881Z" fill="#83CD20"/>
<path d="M288.933 134.881C289.696 134.881 290.315 134.262 290.315 133.498C290.315 132.735 289.696 132.116 288.933 132.116C288.17 132.116 287.551 132.735 287.551 133.498C287.551 134.262 288.17 134.881 288.933 134.881Z" fill="#83CD20"/>
<path d="M102.413 134.881C103.177 134.881 103.796 134.262 103.796 133.498C103.796 132.735 103.177 132.116 102.413 132.116C101.65 132.116 101.031 132.735 101.031 133.498C101.031 134.262 101.65 134.881 102.413 134.881Z" fill="#83CD20"/>
<path d="M305.586 134.881C306.35 134.881 306.969 134.262 306.969 133.498C306.969 132.735 306.35 132.116 305.586 132.116C304.823 132.116 304.204 132.735 304.204 133.498C304.204 134.262 304.823 134.881 305.586 134.881Z" fill="#83CD20"/>
<path d="M120.177 134.881C120.941 134.881 121.559 134.262 121.559 133.498C121.559 132.735 120.941 132.116 120.177 132.116C119.414 132.116 118.795 132.735 118.795 133.498C118.795 134.262 119.414 134.881 120.177 134.881Z" fill="#83CD20"/>
<path d="M136.83 153.756C137.594 153.756 138.213 153.137 138.213 152.373C138.213 151.61 137.594 150.991 136.83 150.991C136.067 150.991 135.448 151.61 135.448 152.373C135.448 153.137 136.067 153.756 136.83 153.756Z" fill="#83CD20"/>
<path d="M153.484 153.756C154.247 153.756 154.866 153.137 154.866 152.373C154.866 151.61 154.247 150.991 153.484 150.991C152.72 150.991 152.102 151.61 152.102 152.373C152.102 153.137 152.72 153.756 153.484 153.756Z" fill="#83CD20"/>
<path d="M170.138 153.756C170.901 153.756 171.52 153.137 171.52 152.373C171.52 151.61 170.901 150.991 170.138 150.991C169.375 150.991 168.756 151.61 168.756 152.373C168.756 153.137 169.375 153.756 170.138 153.756Z" fill="#83CD20"/>
<path d="M186.791 153.756C187.555 153.756 188.174 153.137 188.174 152.373C188.174 151.61 187.555 150.991 186.791 150.991C186.028 150.991 185.409 151.61 185.409 152.373C185.409 153.137 186.028 153.756 186.791 153.756Z" fill="#83CD20"/>
<path d="M1.38224 153.756C2.14563 153.756 2.76448 153.137 2.76448 152.373C2.76448 151.61 2.14563 150.991 1.38224 150.991C0.61885 150.991 0 151.61 0 152.373C0 153.137 0.61885 153.756 1.38224 153.756Z" fill="#83CD20"/>
<path d="M205.937 152.373C205.937 152.647 205.856 152.914 205.704 153.141C205.552 153.369 205.337 153.546 205.084 153.65C204.831 153.755 204.554 153.782 204.285 153.729C204.017 153.676 203.771 153.544 203.578 153.351C203.384 153.158 203.253 152.911 203.199 152.643C203.146 152.375 203.173 152.097 203.278 151.844C203.383 151.592 203.56 151.376 203.787 151.224C204.014 151.072 204.282 150.991 204.555 150.991C204.922 150.991 205.273 151.137 205.532 151.396C205.792 151.655 205.937 152.007 205.937 152.373Z" fill="#83CD20"/>
<path d="M19.4178 152.373C19.4178 152.647 19.3367 152.914 19.1849 153.141C19.033 153.369 18.8171 153.546 18.5645 153.65C18.312 153.755 18.034 153.782 17.7659 153.729C17.4978 153.676 17.2515 153.544 17.0582 153.351C16.8649 153.158 16.7332 152.911 16.6799 152.643C16.6265 152.375 16.6539 152.097 16.7585 151.844C16.8632 151.592 17.0403 151.376 17.2676 151.224C17.495 151.072 17.7622 150.991 18.0356 150.991C18.4022 150.991 18.7537 151.137 19.013 151.396C19.2722 151.655 19.4178 152.007 19.4178 152.373Z" fill="#83CD20"/>
<path d="M221.208 153.756C221.972 153.756 222.591 153.137 222.591 152.373C222.591 151.61 221.972 150.991 221.208 150.991C220.445 150.991 219.826 151.61 219.826 152.373C219.826 153.137 220.445 153.756 221.208 153.756Z" fill="#83CD20"/>
<path d="M34.6889 153.756C35.4523 153.756 36.0711 153.137 36.0711 152.373C36.0711 151.61 35.4523 150.991 34.6889 150.991C33.9255 150.991 33.3066 151.61 33.3066 152.373C33.3066 153.137 33.9255 153.756 34.6889 153.756Z" fill="#83CD20"/>
<path d="M237.862 153.756C238.625 153.756 239.244 153.137 239.244 152.373C239.244 151.61 238.625 150.991 237.862 150.991C237.098 150.991 236.479 151.61 236.479 152.373C236.479 153.137 237.098 153.756 237.862 153.756Z" fill="#83CD20"/>
<path d="M52.4526 153.756C53.2159 153.756 53.8348 153.137 53.8348 152.373C53.8348 151.61 53.2159 150.991 52.4526 150.991C51.6892 150.991 51.0703 151.61 51.0703 152.373C51.0703 153.137 51.6892 153.756 52.4526 153.756Z" fill="#83CD20"/>
<path d="M254.515 153.756C255.278 153.756 255.897 153.137 255.897 152.373C255.897 151.61 255.278 150.991 254.515 150.991C253.752 150.991 253.133 151.61 253.133 152.373C253.133 153.137 253.752 153.756 254.515 153.756Z" fill="#83CD20"/>
<path d="M69.1068 153.756C69.8702 153.756 70.4891 153.137 70.4891 152.373C70.4891 151.61 69.8702 150.991 69.1068 150.991C68.3435 150.991 67.7246 151.61 67.7246 152.373C67.7246 153.137 68.3435 153.756 69.1068 153.756Z" fill="#83CD20"/>
<path d="M272.279 153.756C273.042 153.756 273.661 153.137 273.661 152.373C273.661 151.61 273.042 150.991 272.279 150.991C271.515 150.991 270.896 151.61 270.896 152.373C270.896 153.137 271.515 153.756 272.279 153.756Z" fill="#83CD20"/>
<path d="M85.7602 153.756C86.5236 153.756 87.1424 153.137 87.1424 152.373C87.1424 151.61 86.5236 150.991 85.7602 150.991C84.9968 150.991 84.3779 151.61 84.3779 152.373C84.3779 153.137 84.9968 153.756 85.7602 153.756Z" fill="#83CD20"/>
<path d="M288.933 153.756C289.696 153.756 290.315 153.137 290.315 152.373C290.315 151.61 289.696 150.991 288.933 150.991C288.17 150.991 287.551 151.61 287.551 152.373C287.551 153.137 288.17 153.756 288.933 153.756Z" fill="#83CD20"/>
<path d="M102.413 153.756C103.177 153.756 103.796 153.137 103.796 152.373C103.796 151.61 103.177 150.991 102.413 150.991C101.65 150.991 101.031 151.61 101.031 152.373C101.031 153.137 101.65 153.756 102.413 153.756Z" fill="#83CD20"/>
<path d="M305.586 153.756C306.35 153.756 306.969 153.137 306.969 152.373C306.969 151.61 306.35 150.991 305.586 150.991C304.823 150.991 304.204 151.61 304.204 152.373C304.204 153.137 304.823 153.756 305.586 153.756Z" fill="#83CD20"/>
<path d="M120.177 153.756C120.941 153.756 121.559 153.137 121.559 152.373C121.559 151.61 120.941 150.991 120.177 150.991C119.414 150.991 118.795 151.61 118.795 152.373C118.795 153.137 119.414 153.756 120.177 153.756Z" fill="#83CD20"/>
<path d="M136.83 172.631C137.594 172.631 138.213 172.012 138.213 171.248C138.213 170.485 137.594 169.866 136.83 169.866C136.067 169.866 135.448 170.485 135.448 171.248C135.448 172.012 136.067 172.631 136.83 172.631Z" fill="#83CD20"/>
<path d="M153.484 172.631C154.247 172.631 154.866 172.012 154.866 171.248C154.866 170.485 154.247 169.866 153.484 169.866C152.72 169.866 152.102 170.485 152.102 171.248C152.102 172.012 152.72 172.631 153.484 172.631Z" fill="#83CD20"/>
<path d="M170.138 172.631C170.901 172.631 171.52 172.012 171.52 171.248C171.52 170.485 170.901 169.866 170.138 169.866C169.375 169.866 168.756 170.485 168.756 171.248C168.756 172.012 169.375 172.631 170.138 172.631Z" fill="#83CD20"/>
<path d="M186.791 172.631C187.555 172.631 188.174 172.012 188.174 171.248C188.174 170.485 187.555 169.866 186.791 169.866C186.028 169.866 185.409 170.485 185.409 171.248C185.409 172.012 186.028 172.631 186.791 172.631Z" fill="#83CD20"/>
<path d="M1.38224 172.631C2.14563 172.631 2.76448 172.012 2.76448 171.248C2.76448 170.485 2.14563 169.866 1.38224 169.866C0.61885 169.866 0 170.485 0 171.248C0 172.012 0.61885 172.631 1.38224 172.631Z" fill="#83CD20"/>
<path d="M205.937 171.248C205.937 171.522 205.856 171.789 205.704 172.016C205.552 172.244 205.337 172.421 205.084 172.525C204.831 172.63 204.554 172.657 204.285 172.604C204.017 172.551 203.771 172.419 203.578 172.226C203.384 172.033 203.253 171.786 203.199 171.518C203.146 171.25 203.173 170.972 203.278 170.719C203.383 170.467 203.56 170.251 203.787 170.099C204.014 169.947 204.282 169.866 204.555 169.866C204.922 169.866 205.273 170.012 205.532 170.271C205.792 170.53 205.937 170.882 205.937 171.248Z" fill="#83CD20"/>
<path d="M19.4178 171.248C19.4178 171.522 19.3367 171.789 19.1849 172.016C19.033 172.244 18.8171 172.421 18.5645 172.525C18.312 172.63 18.034 172.657 17.7659 172.604C17.4978 172.551 17.2515 172.419 17.0582 172.226C16.8649 172.033 16.7332 171.786 16.6799 171.518C16.6265 171.25 16.6539 170.972 16.7585 170.719C16.8632 170.467 17.0403 170.251 17.2676 170.099C17.495 169.947 17.7622 169.866 18.0356 169.866C18.4022 169.866 18.7537 170.012 19.013 170.271C19.2722 170.53 19.4178 170.882 19.4178 171.248Z" fill="#83CD20"/>
<path d="M221.208 172.631C221.972 172.631 222.591 172.012 222.591 171.248C222.591 170.485 221.972 169.866 221.208 169.866C220.445 169.866 219.826 170.485 219.826 171.248C219.826 172.012 220.445 172.631 221.208 172.631Z" fill="#83CD20"/>
<path d="M34.6889 172.631C35.4523 172.631 36.0711 172.012 36.0711 171.248C36.0711 170.485 35.4523 169.866 34.6889 169.866C33.9255 169.866 33.3066 170.485 33.3066 171.248C33.3066 172.012 33.9255 172.631 34.6889 172.631Z" fill="#83CD20"/>
<path d="M237.862 172.631C238.625 172.631 239.244 172.012 239.244 171.248C239.244 170.485 238.625 169.866 237.862 169.866C237.098 169.866 236.479 170.485 236.479 171.248C236.479 172.012 237.098 172.631 237.862 172.631Z" fill="#83CD20"/>
<path d="M52.4526 172.631C53.2159 172.631 53.8348 172.012 53.8348 171.248C53.8348 170.485 53.2159 169.866 52.4526 169.866C51.6892 169.866 51.0703 170.485 51.0703 171.248C51.0703 172.012 51.6892 172.631 52.4526 172.631Z" fill="#83CD20"/>
<path d="M254.515 172.631C255.278 172.631 255.897 172.012 255.897 171.248C255.897 170.485 255.278 169.866 254.515 169.866C253.752 169.866 253.133 170.485 253.133 171.248C253.133 172.012 253.752 172.631 254.515 172.631Z" fill="#83CD20"/>
<path d="M69.1068 172.631C69.8702 172.631 70.4891 172.012 70.4891 171.248C70.4891 170.485 69.8702 169.866 69.1068 169.866C68.3435 169.866 67.7246 170.485 67.7246 171.248C67.7246 172.012 68.3435 172.631 69.1068 172.631Z" fill="#83CD20"/>
<path d="M272.279 172.631C273.042 172.631 273.661 172.012 273.661 171.248C273.661 170.485 273.042 169.866 272.279 169.866C271.515 169.866 270.896 170.485 270.896 171.248C270.896 172.012 271.515 172.631 272.279 172.631Z" fill="#83CD20"/>
<path d="M85.7602 172.631C86.5236 172.631 87.1424 172.012 87.1424 171.248C87.1424 170.485 86.5236 169.866 85.7602 169.866C84.9968 169.866 84.3779 170.485 84.3779 171.248C84.3779 172.012 84.9968 172.631 85.7602 172.631Z" fill="#83CD20"/>
<path d="M288.933 172.631C289.696 172.631 290.315 172.012 290.315 171.248C290.315 170.485 289.696 169.866 288.933 169.866C288.17 169.866 287.551 170.485 287.551 171.248C287.551 172.012 288.17 172.631 288.933 172.631Z" fill="#83CD20"/>
<path d="M102.413 172.631C103.177 172.631 103.796 172.012 103.796 171.248C103.796 170.485 103.177 169.866 102.413 169.866C101.65 169.866 101.031 170.485 101.031 171.248C101.031 172.012 101.65 172.631 102.413 172.631Z" fill="#83CD20"/>
<path d="M305.586 172.631C306.35 172.631 306.969 172.012 306.969 171.248C306.969 170.485 306.35 169.866 305.586 169.866C304.823 169.866 304.204 170.485 304.204 171.248C304.204 172.012 304.823 172.631 305.586 172.631Z" fill="#83CD20"/>
<path d="M120.177 172.631C120.941 172.631 121.559 172.012 121.559 171.248C121.559 170.485 120.941 169.866 120.177 169.866C119.414 169.866 118.795 170.485 118.795 171.248C118.795 172.012 119.414 172.631 120.177 172.631Z" fill="#83CD20"/>
<path d="M136.83 191.502C137.594 191.502 138.213 190.883 138.213 190.12C138.213 189.356 137.594 188.737 136.83 188.737C136.067 188.737 135.448 189.356 135.448 190.12C135.448 190.883 136.067 191.502 136.83 191.502Z" fill="#83CD20"/>
<path d="M153.484 191.502C154.247 191.502 154.866 190.883 154.866 190.12C154.866 189.356 154.247 188.737 153.484 188.737C152.72 188.737 152.102 189.356 152.102 190.12C152.102 190.883 152.72 191.502 153.484 191.502Z" fill="#83CD20"/>
<path d="M170.138 191.502C170.901 191.502 171.52 190.883 171.52 190.12C171.52 189.356 170.901 188.737 170.138 188.737C169.375 188.737 168.756 189.356 168.756 190.12C168.756 190.883 169.375 191.502 170.138 191.502Z" fill="#83CD20"/>
<path d="M186.791 191.502C187.555 191.502 188.174 190.883 188.174 190.12C188.174 189.356 187.555 188.737 186.791 188.737C186.028 188.737 185.409 189.356 185.409 190.12C185.409 190.883 186.028 191.502 186.791 191.502Z" fill="#83CD20"/>
<path d="M1.38224 191.502C2.14563 191.502 2.76448 190.883 2.76448 190.12C2.76448 189.356 2.14563 188.737 1.38224 188.737C0.61885 188.737 0 189.356 0 190.12C0 190.883 0.61885 191.502 1.38224 191.502Z" fill="#83CD20"/>
<path d="M205.937 190.12C205.937 190.393 205.856 190.66 205.704 190.887C205.552 191.115 205.337 191.292 205.084 191.397C204.831 191.501 204.554 191.529 204.285 191.475C204.017 191.422 203.771 191.29 203.578 191.097C203.384 190.904 203.253 190.657 203.199 190.389C203.146 190.121 203.173 189.843 203.278 189.591C203.383 189.338 203.56 189.122 203.787 188.97C204.014 188.818 204.282 188.737 204.555 188.737C204.922 188.737 205.273 188.883 205.532 189.142C205.792 189.401 205.937 189.753 205.937 190.12Z" fill="#83CD20"/>
<path d="M19.4178 190.12C19.4178 190.393 19.3367 190.66 19.1849 190.887C19.033 191.115 18.8171 191.292 18.5645 191.397C18.312 191.501 18.034 191.529 17.7659 191.475C17.4978 191.422 17.2515 191.29 17.0582 191.097C16.8649 190.904 16.7332 190.657 16.6799 190.389C16.6265 190.121 16.6539 189.843 16.7585 189.591C16.8632 189.338 17.0403 189.122 17.2676 188.97C17.495 188.818 17.7622 188.737 18.0356 188.737C18.4022 188.737 18.7537 188.883 19.013 189.142C19.2722 189.401 19.4178 189.753 19.4178 190.12Z" fill="#83CD20"/>
<path d="M221.208 191.502C221.972 191.502 222.591 190.883 222.591 190.12C222.591 189.356 221.972 188.737 221.208 188.737C220.445 188.737 219.826 189.356 219.826 190.12C219.826 190.883 220.445 191.502 221.208 191.502Z" fill="#83CD20"/>
<path d="M34.6889 191.502C35.4523 191.502 36.0711 190.883 36.0711 190.12C36.0711 189.356 35.4523 188.737 34.6889 188.737C33.9255 188.737 33.3066 189.356 33.3066 190.12C33.3066 190.883 33.9255 191.502 34.6889 191.502Z" fill="#83CD20"/>
<path d="M237.862 191.502C238.625 191.502 239.244 190.883 239.244 190.12C239.244 189.356 238.625 188.737 237.862 188.737C237.098 188.737 236.479 189.356 236.479 190.12C236.479 190.883 237.098 191.502 237.862 191.502Z" fill="#83CD20"/>
<path d="M52.4526 191.502C53.2159 191.502 53.8348 190.883 53.8348 190.12C53.8348 189.356 53.2159 188.737 52.4526 188.737C51.6892 188.737 51.0703 189.356 51.0703 190.12C51.0703 190.883 51.6892 191.502 52.4526 191.502Z" fill="#83CD20"/>
<path d="M254.515 191.502C255.278 191.502 255.897 190.883 255.897 190.12C255.897 189.356 255.278 188.737 254.515 188.737C253.752 188.737 253.133 189.356 253.133 190.12C253.133 190.883 253.752 191.502 254.515 191.502Z" fill="#83CD20"/>
<path d="M69.1068 191.502C69.8702 191.502 70.4891 190.883 70.4891 190.12C70.4891 189.356 69.8702 188.737 69.1068 188.737C68.3435 188.737 67.7246 189.356 67.7246 190.12C67.7246 190.883 68.3435 191.502 69.1068 191.502Z" fill="#83CD20"/>
<path d="M272.279 191.502C273.042 191.502 273.661 190.883 273.661 190.12C273.661 189.356 273.042 188.737 272.279 188.737C271.515 188.737 270.896 189.356 270.896 190.12C270.896 190.883 271.515 191.502 272.279 191.502Z" fill="#83CD20"/>
<path d="M85.7602 191.502C86.5236 191.502 87.1424 190.883 87.1424 190.12C87.1424 189.356 86.5236 188.737 85.7602 188.737C84.9968 188.737 84.3779 189.356 84.3779 190.12C84.3779 190.883 84.9968 191.502 85.7602 191.502Z" fill="#83CD20"/>
<path d="M288.933 191.502C289.696 191.502 290.315 190.883 290.315 190.12C290.315 189.356 289.696 188.737 288.933 188.737C288.17 188.737 287.551 189.356 287.551 190.12C287.551 190.883 288.17 191.502 288.933 191.502Z" fill="#83CD20"/>
<path d="M102.413 191.502C103.177 191.502 103.796 190.883 103.796 190.12C103.796 189.356 103.177 188.737 102.413 188.737C101.65 188.737 101.031 189.356 101.031 190.12C101.031 190.883 101.65 191.502 102.413 191.502Z" fill="#83CD20"/>
<path d="M305.586 191.502C306.35 191.502 306.969 190.883 306.969 190.12C306.969 189.356 306.35 188.737 305.586 188.737C304.823 188.737 304.204 189.356 304.204 190.12C304.204 190.883 304.823 191.502 305.586 191.502Z" fill="#83CD20"/>
<path d="M120.177 191.502C120.941 191.502 121.559 190.883 121.559 190.12C121.559 189.356 120.941 188.737 120.177 188.737C119.414 188.737 118.795 189.356 118.795 190.12C118.795 190.883 119.414 191.502 120.177 191.502Z" fill="#83CD20"/>
<path d="M136.83 210.377C137.594 210.377 138.213 209.758 138.213 208.995C138.213 208.231 137.594 207.612 136.83 207.612C136.067 207.612 135.448 208.231 135.448 208.995C135.448 209.758 136.067 210.377 136.83 210.377Z" fill="#83CD20"/>
<path d="M153.484 210.377C154.247 210.377 154.866 209.758 154.866 208.995C154.866 208.231 154.247 207.612 153.484 207.612C152.72 207.612 152.102 208.231 152.102 208.995C152.102 209.758 152.72 210.377 153.484 210.377Z" fill="#83CD20"/>
<path d="M170.138 210.377C170.901 210.377 171.52 209.758 171.52 208.995C171.52 208.231 170.901 207.612 170.138 207.612C169.375 207.612 168.756 208.231 168.756 208.995C168.756 209.758 169.375 210.377 170.138 210.377Z" fill="#83CD20"/>
<path d="M186.791 210.377C187.555 210.377 188.174 209.758 188.174 208.995C188.174 208.231 187.555 207.612 186.791 207.612C186.028 207.612 185.409 208.231 185.409 208.995C185.409 209.758 186.028 210.377 186.791 210.377Z" fill="#83CD20"/>
<path d="M1.38224 210.377C2.14563 210.377 2.76448 209.758 2.76448 208.995C2.76448 208.231 2.14563 207.612 1.38224 207.612C0.61885 207.612 0 208.231 0 208.995C0 209.758 0.61885 210.377 1.38224 210.377Z" fill="#83CD20"/>
<path d="M205.937 208.995C205.937 209.268 205.856 209.535 205.704 209.762C205.552 209.99 205.337 210.167 205.084 210.272C204.831 210.376 204.554 210.404 204.285 210.35C204.017 210.297 203.771 210.165 203.578 209.972C203.384 209.779 203.253 209.532 203.199 209.264C203.146 208.996 203.173 208.718 203.278 208.466C203.383 208.213 203.56 207.997 203.787 207.845C204.014 207.693 204.282 207.612 204.555 207.612C204.922 207.612 205.273 207.758 205.532 208.017C205.792 208.276 205.937 208.628 205.937 208.995Z" fill="#83CD20"/>
<path d="M19.4178 208.995C19.4178 209.268 19.3367 209.535 19.1849 209.762C19.033 209.99 18.8171 210.167 18.5645 210.272C18.312 210.376 18.034 210.404 17.7659 210.35C17.4978 210.297 17.2515 210.165 17.0582 209.972C16.8649 209.779 16.7332 209.532 16.6799 209.264C16.6265 208.996 16.6539 208.718 16.7585 208.466C16.8632 208.213 17.0403 207.997 17.2676 207.845C17.495 207.693 17.7622 207.612 18.0356 207.612C18.4022 207.612 18.7537 207.758 19.013 208.017C19.2722 208.276 19.4178 208.628 19.4178 208.995Z" fill="#83CD20"/>
<path d="M221.208 210.377C221.972 210.377 222.591 209.758 222.591 208.995C222.591 208.231 221.972 207.612 221.208 207.612C220.445 207.612 219.826 208.231 219.826 208.995C219.826 209.758 220.445 210.377 221.208 210.377Z" fill="#83CD20"/>
<path d="M34.6889 210.377C35.4523 210.377 36.0711 209.758 36.0711 208.995C36.0711 208.231 35.4523 207.612 34.6889 207.612C33.9255 207.612 33.3066 208.231 33.3066 208.995C33.3066 209.758 33.9255 210.377 34.6889 210.377Z" fill="#83CD20"/>
<path d="M237.862 210.377C238.625 210.377 239.244 209.758 239.244 208.995C239.244 208.231 238.625 207.612 237.862 207.612C237.098 207.612 236.479 208.231 236.479 208.995C236.479 209.758 237.098 210.377 237.862 210.377Z" fill="#83CD20"/>
<path d="M52.4526 210.377C53.2159 210.377 53.8348 209.758 53.8348 208.995C53.8348 208.231 53.2159 207.612 52.4526 207.612C51.6892 207.612 51.0703 208.231 51.0703 208.995C51.0703 209.758 51.6892 210.377 52.4526 210.377Z" fill="#83CD20"/>
<path d="M254.515 210.377C255.278 210.377 255.897 209.758 255.897 208.995C255.897 208.231 255.278 207.612 254.515 207.612C253.752 207.612 253.133 208.231 253.133 208.995C253.133 209.758 253.752 210.377 254.515 210.377Z" fill="#83CD20"/>
<path d="M69.1068 210.377C69.8702 210.377 70.4891 209.758 70.4891 208.995C70.4891 208.231 69.8702 207.612 69.1068 207.612C68.3435 207.612 67.7246 208.231 67.7246 208.995C67.7246 209.758 68.3435 210.377 69.1068 210.377Z" fill="#83CD20"/>
<path d="M272.279 210.377C273.042 210.377 273.661 209.758 273.661 208.995C273.661 208.231 273.042 207.612 272.279 207.612C271.515 207.612 270.896 208.231 270.896 208.995C270.896 209.758 271.515 210.377 272.279 210.377Z" fill="#83CD20"/>
<path d="M85.7602 210.377C86.5236 210.377 87.1424 209.758 87.1424 208.995C87.1424 208.231 86.5236 207.612 85.7602 207.612C84.9968 207.612 84.3779 208.231 84.3779 208.995C84.3779 209.758 84.9968 210.377 85.7602 210.377Z" fill="#83CD20"/>
<path d="M288.933 210.377C289.696 210.377 290.315 209.758 290.315 208.995C290.315 208.231 289.696 207.612 288.933 207.612C288.17 207.612 287.551 208.231 287.551 208.995C287.551 209.758 288.17 210.377 288.933 210.377Z" fill="#83CD20"/>
<path d="M102.413 210.377C103.177 210.377 103.796 209.758 103.796 208.995C103.796 208.231 103.177 207.612 102.413 207.612C101.65 207.612 101.031 208.231 101.031 208.995C101.031 209.758 101.65 210.377 102.413 210.377Z" fill="#83CD20"/>
<path d="M305.586 210.377C306.35 210.377 306.969 209.758 306.969 208.995C306.969 208.231 306.35 207.612 305.586 207.612C304.823 207.612 304.204 208.231 304.204 208.995C304.204 209.758 304.823 210.377 305.586 210.377Z" fill="#83CD20"/>
<path d="M120.177 210.377C120.941 210.377 121.559 209.758 121.559 208.995C121.559 208.231 120.941 207.612 120.177 207.612C119.414 207.612 118.795 208.231 118.795 208.995C118.795 209.758 119.414 210.377 120.177 210.377Z" fill="#83CD20"/>
<path d="M136.83 229.252C137.594 229.252 138.213 228.633 138.213 227.87C138.213 227.106 137.594 226.487 136.83 226.487C136.067 226.487 135.448 227.106 135.448 227.87C135.448 228.633 136.067 229.252 136.83 229.252Z" fill="#83CD20"/>
<path d="M153.484 229.252C154.247 229.252 154.866 228.633 154.866 227.87C154.866 227.106 154.247 226.487 153.484 226.487C152.72 226.487 152.102 227.106 152.102 227.87C152.102 228.633 152.72 229.252 153.484 229.252Z" fill="#83CD20"/>
<path d="M170.138 229.252C170.901 229.252 171.52 228.633 171.52 227.87C171.52 227.106 170.901 226.487 170.138 226.487C169.375 226.487 168.756 227.106 168.756 227.87C168.756 228.633 169.375 229.252 170.138 229.252Z" fill="#83CD20"/>
<path d="M186.791 229.252C187.555 229.252 188.174 228.633 188.174 227.87C188.174 227.106 187.555 226.487 186.791 226.487C186.028 226.487 185.409 227.106 185.409 227.87C185.409 228.633 186.028 229.252 186.791 229.252Z" fill="#83CD20"/>
<path d="M1.38224 229.252C2.14563 229.252 2.76448 228.633 2.76448 227.87C2.76448 227.106 2.14563 226.487 1.38224 226.487C0.61885 226.487 0 227.106 0 227.87C0 228.633 0.61885 229.252 1.38224 229.252Z" fill="#83CD20"/>
<path d="M205.937 227.87C205.937 228.143 205.856 228.41 205.704 228.637C205.552 228.865 205.337 229.042 205.084 229.147C204.831 229.251 204.554 229.279 204.285 229.225C204.017 229.172 203.771 229.04 203.578 228.847C203.384 228.654 203.253 228.407 203.199 228.139C203.146 227.871 203.173 227.593 203.278 227.341C203.383 227.088 203.56 226.872 203.787 226.72C204.014 226.568 204.282 226.487 204.555 226.487C204.922 226.487 205.273 226.633 205.532 226.892C205.792 227.151 205.937 227.503 205.937 227.87Z" fill="#83CD20"/>
<path d="M19.4178 227.87C19.4178 228.143 19.3367 228.41 19.1849 228.637C19.033 228.865 18.8171 229.042 18.5645 229.147C18.312 229.251 18.034 229.279 17.7659 229.225C17.4978 229.172 17.2515 229.04 17.0582 228.847C16.8649 228.654 16.7332 228.407 16.6799 228.139C16.6265 227.871 16.6539 227.593 16.7585 227.341C16.8632 227.088 17.0403 226.872 17.2676 226.72C17.495 226.568 17.7622 226.487 18.0356 226.487C18.4022 226.487 18.7537 226.633 19.013 226.892C19.2722 227.151 19.4178 227.503 19.4178 227.87Z" fill="#83CD20"/>
<path d="M221.208 229.252C221.972 229.252 222.591 228.633 222.591 227.87C222.591 227.106 221.972 226.487 221.208 226.487C220.445 226.487 219.826 227.106 219.826 227.87C219.826 228.633 220.445 229.252 221.208 229.252Z" fill="#83CD20"/>
<path d="M34.6889 229.252C35.4523 229.252 36.0711 228.633 36.0711 227.87C36.0711 227.106 35.4523 226.487 34.6889 226.487C33.9255 226.487 33.3066 227.106 33.3066 227.87C33.3066 228.633 33.9255 229.252 34.6889 229.252Z" fill="#83CD20"/>
<path d="M237.862 229.252C238.625 229.252 239.244 228.633 239.244 227.87C239.244 227.106 238.625 226.487 237.862 226.487C237.098 226.487 236.479 227.106 236.479 227.87C236.479 228.633 237.098 229.252 237.862 229.252Z" fill="#83CD20"/>
<path d="M52.4526 229.252C53.2159 229.252 53.8348 228.633 53.8348 227.87C53.8348 227.106 53.2159 226.487 52.4526 226.487C51.6892 226.487 51.0703 227.106 51.0703 227.87C51.0703 228.633 51.6892 229.252 52.4526 229.252Z" fill="#83CD20"/>
<path d="M254.515 229.252C255.278 229.252 255.897 228.633 255.897 227.87C255.897 227.106 255.278 226.487 254.515 226.487C253.752 226.487 253.133 227.106 253.133 227.87C253.133 228.633 253.752 229.252 254.515 229.252Z" fill="#83CD20"/>
<path d="M69.1068 229.252C69.8702 229.252 70.4891 228.633 70.4891 227.87C70.4891 227.106 69.8702 226.487 69.1068 226.487C68.3435 226.487 67.7246 227.106 67.7246 227.87C67.7246 228.633 68.3435 229.252 69.1068 229.252Z" fill="#83CD20"/>
<path d="M272.279 229.252C273.042 229.252 273.661 228.633 273.661 227.87C273.661 227.106 273.042 226.487 272.279 226.487C271.515 226.487 270.896 227.106 270.896 227.87C270.896 228.633 271.515 229.252 272.279 229.252Z" fill="#83CD20"/>
<path d="M85.7602 229.252C86.5236 229.252 87.1424 228.633 87.1424 227.87C87.1424 227.106 86.5236 226.487 85.7602 226.487C84.9968 226.487 84.3779 227.106 84.3779 227.87C84.3779 228.633 84.9968 229.252 85.7602 229.252Z" fill="#83CD20"/>
<path d="M288.933 229.252C289.696 229.252 290.315 228.633 290.315 227.87C290.315 227.106 289.696 226.487 288.933 226.487C288.17 226.487 287.551 227.106 287.551 227.87C287.551 228.633 288.17 229.252 288.933 229.252Z" fill="#83CD20"/>
<path d="M102.413 229.252C103.177 229.252 103.796 228.633 103.796 227.87C103.796 227.106 103.177 226.487 102.413 226.487C101.65 226.487 101.031 227.106 101.031 227.87C101.031 228.633 101.65 229.252 102.413 229.252Z" fill="#83CD20"/>
<path d="M305.586 229.252C306.35 229.252 306.969 228.633 306.969 227.87C306.969 227.106 306.35 226.487 305.586 226.487C304.823 226.487 304.204 227.106 304.204 227.87C304.204 228.633 304.823 229.252 305.586 229.252Z" fill="#83CD20"/>
<path d="M120.177 229.252C120.941 229.252 121.559 228.633 121.559 227.87C121.559 227.106 120.941 226.487 120.177 226.487C119.414 226.487 118.795 227.106 118.795 227.87C118.795 228.633 119.414 229.252 120.177 229.252Z" fill="#83CD20"/>
<path d="M136.83 248.127C137.594 248.127 138.213 247.508 138.213 246.745C138.213 245.981 137.594 245.362 136.83 245.362C136.067 245.362 135.448 245.981 135.448 246.745C135.448 247.508 136.067 248.127 136.83 248.127Z" fill="#83CD20"/>
<path d="M153.484 248.127C154.247 248.127 154.866 247.508 154.866 246.745C154.866 245.981 154.247 245.362 153.484 245.362C152.72 245.362 152.102 245.981 152.102 246.745C152.102 247.508 152.72 248.127 153.484 248.127Z" fill="#83CD20"/>
<path d="M170.138 248.127C170.901 248.127 171.52 247.508 171.52 246.745C171.52 245.981 170.901 245.362 170.138 245.362C169.375 245.362 168.756 245.981 168.756 246.745C168.756 247.508 169.375 248.127 170.138 248.127Z" fill="#83CD20"/>
<path d="M186.791 248.127C187.555 248.127 188.174 247.508 188.174 246.745C188.174 245.981 187.555 245.362 186.791 245.362C186.028 245.362 185.409 245.981 185.409 246.745C185.409 247.508 186.028 248.127 186.791 248.127Z" fill="#83CD20"/>
<path d="M1.38224 248.127C2.14563 248.127 2.76448 247.508 2.76448 246.745C2.76448 245.981 2.14563 245.362 1.38224 245.362C0.61885 245.362 0 245.981 0 246.745C0 247.508 0.61885 248.127 1.38224 248.127Z" fill="#83CD20"/>
<path d="M205.937 246.745C205.937 247.018 205.856 247.285 205.704 247.512C205.552 247.74 205.337 247.917 205.084 248.022C204.831 248.126 204.554 248.154 204.285 248.1C204.017 248.047 203.771 247.915 203.578 247.722C203.384 247.529 203.253 247.282 203.199 247.014C203.146 246.746 203.173 246.468 203.278 246.216C203.383 245.963 203.56 245.747 203.787 245.595C204.014 245.443 204.282 245.362 204.555 245.362C204.922 245.362 205.273 245.508 205.532 245.767C205.792 246.026 205.937 246.378 205.937 246.745Z" fill="#83CD20"/>
<path d="M19.4178 246.745C19.4178 247.018 19.3367 247.285 19.1849 247.512C19.033 247.74 18.8171 247.917 18.5645 248.022C18.312 248.126 18.034 248.154 17.7659 248.1C17.4978 248.047 17.2515 247.915 17.0582 247.722C16.8649 247.529 16.7332 247.282 16.6799 247.014C16.6265 246.746 16.6539 246.468 16.7585 246.216C16.8632 245.963 17.0403 245.747 17.2676 245.595C17.495 245.443 17.7622 245.362 18.0356 245.362C18.4022 245.362 18.7537 245.508 19.013 245.767C19.2722 246.026 19.4178 246.378 19.4178 246.745Z" fill="#83CD20"/>
<path d="M221.208 248.127C221.972 248.127 222.591 247.508 222.591 246.745C222.591 245.981 221.972 245.362 221.208 245.362C220.445 245.362 219.826 245.981 219.826 246.745C219.826 247.508 220.445 248.127 221.208 248.127Z" fill="#83CD20"/>
<path d="M34.6889 248.127C35.4523 248.127 36.0711 247.508 36.0711 246.745C36.0711 245.981 35.4523 245.362 34.6889 245.362C33.9255 245.362 33.3066 245.981 33.3066 246.745C33.3066 247.508 33.9255 248.127 34.6889 248.127Z" fill="#83CD20"/>
<path d="M237.862 248.127C238.625 248.127 239.244 247.508 239.244 246.745C239.244 245.981 238.625 245.362 237.862 245.362C237.098 245.362 236.479 245.981 236.479 246.745C236.479 247.508 237.098 248.127 237.862 248.127Z" fill="#83CD20"/>
<path d="M52.4526 248.127C53.2159 248.127 53.8348 247.508 53.8348 246.745C53.8348 245.981 53.2159 245.362 52.4526 245.362C51.6892 245.362 51.0703 245.981 51.0703 246.745C51.0703 247.508 51.6892 248.127 52.4526 248.127Z" fill="#83CD20"/>
<path d="M254.515 248.127C255.278 248.127 255.897 247.508 255.897 246.745C255.897 245.981 255.278 245.362 254.515 245.362C253.752 245.362 253.133 245.981 253.133 246.745C253.133 247.508 253.752 248.127 254.515 248.127Z" fill="#83CD20"/>
<path d="M69.1068 248.127C69.8702 248.127 70.4891 247.508 70.4891 246.745C70.4891 245.981 69.8702 245.362 69.1068 245.362C68.3435 245.362 67.7246 245.981 67.7246 246.745C67.7246 247.508 68.3435 248.127 69.1068 248.127Z" fill="#83CD20"/>
<path d="M272.279 248.127C273.042 248.127 273.661 247.508 273.661 246.745C273.661 245.981 273.042 245.362 272.279 245.362C271.515 245.362 270.896 245.981 270.896 246.745C270.896 247.508 271.515 248.127 272.279 248.127Z" fill="#83CD20"/>
<path d="M85.7602 248.127C86.5236 248.127 87.1424 247.508 87.1424 246.745C87.1424 245.981 86.5236 245.362 85.7602 245.362C84.9968 245.362 84.3779 245.981 84.3779 246.745C84.3779 247.508 84.9968 248.127 85.7602 248.127Z" fill="#83CD20"/>
<path d="M288.933 248.127C289.696 248.127 290.315 247.508 290.315 246.745C290.315 245.981 289.696 245.362 288.933 245.362C288.17 245.362 287.551 245.981 287.551 246.745C287.551 247.508 288.17 248.127 288.933 248.127Z" fill="#83CD20"/>
<path d="M102.413 248.127C103.177 248.127 103.796 247.508 103.796 246.745C103.796 245.981 103.177 245.362 102.413 245.362C101.65 245.362 101.031 245.981 101.031 246.745C101.031 247.508 101.65 248.127 102.413 248.127Z" fill="#83CD20"/>
<path d="M305.586 248.127C306.35 248.127 306.969 247.508 306.969 246.745C306.969 245.981 306.35 245.362 305.586 245.362C304.823 245.362 304.204 245.981 304.204 246.745C304.204 247.508 304.823 248.127 305.586 248.127Z" fill="#83CD20"/>
<path d="M120.177 248.127C120.941 248.127 121.559 247.508 121.559 246.745C121.559 245.981 120.941 245.362 120.177 245.362C119.414 245.362 118.795 245.981 118.795 246.745C118.795 247.508 119.414 248.127 120.177 248.127Z" fill="#83CD20"/>
<path d="M136.83 266.998C137.594 266.998 138.213 266.379 138.213 265.616C138.213 264.852 137.594 264.233 136.83 264.233C136.067 264.233 135.448 264.852 135.448 265.616C135.448 266.379 136.067 266.998 136.83 266.998Z" fill="#83CD20"/>
<path d="M153.484 266.998C154.247 266.998 154.866 266.379 154.866 265.616C154.866 264.852 154.247 264.233 153.484 264.233C152.72 264.233 152.102 264.852 152.102 265.616C152.102 266.379 152.72 266.998 153.484 266.998Z" fill="#83CD20"/>
<path d="M170.138 266.998C170.901 266.998 171.52 266.379 171.52 265.616C171.52 264.852 170.901 264.233 170.138 264.233C169.375 264.233 168.756 264.852 168.756 265.616C168.756 266.379 169.375 266.998 170.138 266.998Z" fill="#83CD20"/>
<path d="M186.791 266.998C187.555 266.998 188.174 266.379 188.174 265.616C188.174 264.852 187.555 264.233 186.791 264.233C186.028 264.233 185.409 264.852 185.409 265.616C185.409 266.379 186.028 266.998 186.791 266.998Z" fill="#83CD20"/>
<path d="M1.38224 266.998C2.14563 266.998 2.76448 266.379 2.76448 265.616C2.76448 264.852 2.14563 264.233 1.38224 264.233C0.61885 264.233 0 264.852 0 265.616C0 266.379 0.61885 266.998 1.38224 266.998Z" fill="#83CD20"/>
<path d="M205.937 265.616C205.937 265.889 205.856 266.156 205.704 266.384C205.552 266.611 205.337 266.788 205.084 266.893C204.831 266.997 204.554 267.025 204.285 266.971C204.017 266.918 203.771 266.786 203.578 266.593C203.384 266.4 203.253 266.153 203.199 265.885C203.146 265.617 203.173 265.339 203.278 265.087C203.383 264.834 203.56 264.618 203.787 264.466C204.014 264.314 204.282 264.233 204.555 264.233C204.922 264.233 205.273 264.379 205.532 264.638C205.792 264.897 205.937 265.249 205.937 265.616Z" fill="#83CD20"/>
<path d="M19.4178 265.616C19.4178 265.889 19.3367 266.156 19.1849 266.384C19.033 266.611 18.8171 266.788 18.5645 266.893C18.312 266.997 18.034 267.025 17.7659 266.971C17.4978 266.918 17.2515 266.786 17.0582 266.593C16.8649 266.4 16.7332 266.153 16.6799 265.885C16.6265 265.617 16.6539 265.339 16.7585 265.087C16.8632 264.834 17.0403 264.618 17.2676 264.466C17.495 264.314 17.7622 264.233 18.0356 264.233C18.4022 264.233 18.7537 264.379 19.013 264.638C19.2722 264.897 19.4178 265.249 19.4178 265.616Z" fill="#83CD20"/>
<path d="M221.208 266.998C221.972 266.998 222.591 266.379 222.591 265.616C222.591 264.852 221.972 264.233 221.208 264.233C220.445 264.233 219.826 264.852 219.826 265.616C219.826 266.379 220.445 266.998 221.208 266.998Z" fill="#83CD20"/>
<path d="M34.6889 266.998C35.4523 266.998 36.0711 266.379 36.0711 265.616C36.0711 264.852 35.4523 264.233 34.6889 264.233C33.9255 264.233 33.3066 264.852 33.3066 265.616C33.3066 266.379 33.9255 266.998 34.6889 266.998Z" fill="#83CD20"/>
<path d="M237.862 266.998C238.625 266.998 239.244 266.379 239.244 265.616C239.244 264.852 238.625 264.233 237.862 264.233C237.098 264.233 236.479 264.852 236.479 265.616C236.479 266.379 237.098 266.998 237.862 266.998Z" fill="#83CD20"/>
<path d="M52.4526 266.998C53.2159 266.998 53.8348 266.379 53.8348 265.616C53.8348 264.852 53.2159 264.233 52.4526 264.233C51.6892 264.233 51.0703 264.852 51.0703 265.616C51.0703 266.379 51.6892 266.998 52.4526 266.998Z" fill="#83CD20"/>
<path d="M254.515 266.998C255.278 266.998 255.897 266.379 255.897 265.616C255.897 264.852 255.278 264.233 254.515 264.233C253.752 264.233 253.133 264.852 253.133 265.616C253.133 266.379 253.752 266.998 254.515 266.998Z" fill="#83CD20"/>
<path d="M69.1068 266.998C69.8702 266.998 70.4891 266.379 70.4891 265.616C70.4891 264.852 69.8702 264.233 69.1068 264.233C68.3435 264.233 67.7246 264.852 67.7246 265.616C67.7246 266.379 68.3435 266.998 69.1068 266.998Z" fill="#83CD20"/>
<path d="M272.279 266.998C273.042 266.998 273.661 266.379 273.661 265.616C273.661 264.852 273.042 264.233 272.279 264.233C271.515 264.233 270.896 264.852 270.896 265.616C270.896 266.379 271.515 266.998 272.279 266.998Z" fill="#83CD20"/>
<path d="M85.7602 266.998C86.5236 266.998 87.1424 266.379 87.1424 265.616C87.1424 264.852 86.5236 264.233 85.7602 264.233C84.9968 264.233 84.3779 264.852 84.3779 265.616C84.3779 266.379 84.9968 266.998 85.7602 266.998Z" fill="#83CD20"/>
<path d="M288.933 266.998C289.696 266.998 290.315 266.379 290.315 265.616C290.315 264.852 289.696 264.233 288.933 264.233C288.17 264.233 287.551 264.852 287.551 265.616C287.551 266.379 288.17 266.998 288.933 266.998Z" fill="#83CD20"/>
<path d="M102.413 266.998C103.177 266.998 103.796 266.379 103.796 265.616C103.796 264.852 103.177 264.233 102.413 264.233C101.65 264.233 101.031 264.852 101.031 265.616C101.031 266.379 101.65 266.998 102.413 266.998Z" fill="#83CD20"/>
<path d="M305.586 266.998C306.35 266.998 306.969 266.379 306.969 265.616C306.969 264.852 306.35 264.233 305.586 264.233C304.823 264.233 304.204 264.852 304.204 265.616C304.204 266.379 304.823 266.998 305.586 266.998Z" fill="#83CD20"/>
<path d="M120.177 266.998C120.941 266.998 121.559 266.379 121.559 265.616C121.559 264.852 120.941 264.233 120.177 264.233C119.414 264.233 118.795 264.852 118.795 265.616C118.795 266.379 119.414 266.998 120.177 266.998Z" fill="#83CD20"/>
</svg>
